<svg xmlns="http://www.w3.org/2000/svg" width="2732" height="2732" viewBox="0 0 2732 2732">
  <defs>
    <radialGradient id="bg" cx="50%" cy="44%" r="70%">
      <stop offset="0%" stop-color="#221e1b"/>
      <stop offset="55%" stop-color="#121110"/>
      <stop offset="100%" stop-color="#0a0a0a"/>
    </radialGradient>
    <radialGradient id="glow" cx="50%" cy="42%" r="30%">
      <stop offset="0%" stop-color="#d97706" stop-opacity="0.35"/>
      <stop offset="100%" stop-color="#d97706" stop-opacity="0"/>
    </radialGradient>
    <linearGradient id="top" x1="0" y1="0" x2="0.3" y2="1">
      <stop offset="0%" stop-color="#ffe28a"/>
      <stop offset="100%" stop-color="#e8a92a"/>
    </linearGradient>
    <linearGradient id="left" x1="0" y1="0" x2="0" y2="1">
      <stop offset="0%" stop-color="#cf8c20"/>
      <stop offset="100%" stop-color="#996114"/>
    </linearGradient>
    <linearGradient id="right" x1="0" y1="0" x2="0" y2="1">
      <stop offset="0%" stop-color="#9c6a16"/>
      <stop offset="100%" stop-color="#6f470d"/>
    </linearGradient>
  </defs>

  <rect width="2732" height="2732" fill="url(#bg)"/>
  <rect width="2732" height="2732" fill="url(#glow)"/>

  <g transform="translate(649,360) scale(1.4)">
    <g stroke="#4a2f0b" stroke-width="7" stroke-linejoin="round">
      <polygon points="512,232 792,392 512,552 232,392" fill="url(#top)"/>
      <polygon points="232,392 512,552 512,832 232,672" fill="url(#left)"/>
      <polygon points="792,392 512,552 512,832 792,672" fill="url(#right)"/>
    </g>
    <polyline points="232,392 512,232 792,392" fill="none" stroke="#fff1c4" stroke-width="5" stroke-opacity="0.5" stroke-linejoin="round"/>
    <g fill="#3a2408">
      <circle cx="512" cy="392" r="36"/>
      <circle cx="330" cy="540" r="29"/>
      <circle cx="414" cy="686" r="29"/>
      <circle cx="720" cy="505" r="27"/>
      <circle cx="652" cy="612" r="27"/>
      <circle cx="584" cy="719" r="27"/>
    </g>
  </g>

  <text x="1366" y="1880" text-anchor="middle" font-family="Georgia, 'Times New Roman', serif" font-size="190" font-weight="700" letter-spacing="24" fill="#e8a92a">CHARVO</text>
  <text x="1366" y="1990" text-anchor="middle" font-family="Georgia, serif" font-size="62" letter-spacing="10" fill="#8a8078">Forje sua Lenda</text>
</svg>
